# xmcd
#
# Track frame offsets: 
#        150
#        12111
#        25746
#        38884
#        49550
#        63502
#        104050
#        114843
#        131093
#        140883
#        156843
#        167673
#        175573
#
# Disc length: 2560 seconds
#
# Revision: 0
# Processed by: cddbd v1.5.2PL0 Copyright (c) Steve Scherf et al.
# Submitted via: ExactAudioCopyFreeDBPlugin 1.0
#
DISCID=a909fe0d
DTITLE=Hammercult - Anthems Of The damned
DYEAR=2012
DGENRE=Neo-Thrash Metal
TTITLE0=Above the Ruins
TTITLE1=Let the Angels Burn
TTITLE2=Riding Through Hell
TTITLE3=Diabolic Overkill
TTITLE4=We are Hammercult
TTITLE5=Black Horseman
TTITLE6=Stealer Of Souls
TTITLE7=Hell's Unleashed
TTITLE8=Devil Chainsaw Fuck
TTITLE9=Hellbeant
TTITLE10=Into The Death Gate
TTITLE11=The Damned
TTITLE12=Santa Satan
EXTD=
EXTT0=
EXTT1=
EXTT2=
EXTT3=
EXTT4=
EXTT5=
EXTT6=
EXTT7=
EXTT8=
EXTT9=
EXTT10=
EXTT11=
EXTT12=
PLAYORDER=
